<svg width="215" height="35" viewBox="0 0 215 35" fill="none" xmlns="http://www.w3.org/2000/svg">
<g clip-path="url(#clip0_87_93)">
<path d="M13.7402 7.70898V31H9.64453V7.70898H3.4043V3.85938H19.9629V7.70898H13.7402ZM44.3297 7.90234L41.0074 9.87109C40.3863 8.79297 39.7945 8.08984 39.232 7.76172C38.6461 7.38672 37.8902 7.19922 36.9645 7.19922C35.8277 7.19922 34.8844 7.52148 34.1344 8.16602C33.3844 8.79883 33.0094 9.5957 33.0094 10.5566C33.0094 11.8809 33.9937 12.9473 35.9625 13.7559L38.6695 14.8633C40.8727 15.7539 42.484 16.8438 43.5035 18.1328C44.523 19.4102 45.0328 20.9805 45.0328 22.8438C45.0328 25.3398 44.2008 27.4023 42.5367 29.0312C40.8609 30.6719 38.7809 31.4922 36.2965 31.4922C33.941 31.4922 31.9957 30.7949 30.4605 29.4004C28.9488 28.0059 28.0055 26.043 27.6305 23.5117L31.7789 22.5977C31.9664 24.1914 32.2945 25.293 32.7633 25.9023C33.607 27.0742 34.8375 27.6602 36.4547 27.6602C37.732 27.6602 38.7926 27.2324 39.6363 26.377C40.4801 25.5215 40.902 24.4375 40.902 23.125C40.902 22.5977 40.8258 22.1172 40.6734 21.6836C40.5328 21.2383 40.3043 20.834 39.9879 20.4707C39.6832 20.0957 39.2848 19.75 38.7926 19.4336C38.3004 19.1055 37.7145 18.7949 37.0348 18.502L34.4156 17.4121C30.7008 15.8418 28.8434 13.5449 28.8434 10.5215C28.8434 8.48242 29.6227 6.77734 31.1812 5.40625C32.7398 4.02344 34.6793 3.33203 36.9996 3.33203C40.1285 3.33203 42.5719 4.85547 44.3297 7.90234ZM71.0344 24.4082H59.4152L56.3918 31H51.9797L65.4094 2.1543L78.3645 31H73.882L71.0344 24.4082ZM69.3645 20.5586L65.3391 11.3301L61.1203 20.5586H69.3645ZM91.2703 3.85938V31H87.1746V3.85938H91.2703ZM108.676 19.2754L99.8168 3.85938H104.528L110.733 14.7051L116.955 3.85938H121.666L112.772 19.2754V31H108.676V19.2754ZM134.309 3.85938V20.207C134.309 22.5391 134.689 24.2441 135.451 25.3223C136.588 26.8809 138.188 27.6602 140.25 27.6602C142.324 27.6602 143.93 26.8809 145.066 25.3223C145.828 24.2793 146.209 22.5742 146.209 20.207V3.85938H150.305V21.332C150.305 24.1914 149.414 26.5469 147.633 28.3984C145.629 30.4609 143.168 31.4922 140.25 31.4922C137.332 31.4922 134.877 30.4609 132.885 28.3984C131.104 26.5469 130.213 24.1914 130.213 21.332V3.85938H134.309ZM167.711 19.2754L158.851 3.85938H163.562L169.767 14.7051L175.99 3.85938H180.701L171.806 19.2754V31H167.711V19.2754ZM193.343 3.85938V20.207C193.343 22.5391 193.724 24.2441 194.486 25.3223C195.622 26.8809 197.222 27.6602 199.284 27.6602C201.359 27.6602 202.964 26.8809 204.101 25.3223C204.863 24.2793 205.243 22.5742 205.243 20.207V3.85938H209.339V21.332C209.339 24.1914 208.448 26.5469 206.667 28.3984C204.663 30.4609 202.202 31.4922 199.284 31.4922C196.366 31.4922 193.911 30.4609 191.919 28.3984C190.138 26.5469 189.247 24.1914 189.247 21.332V3.85938H193.343Z" fill="#00AA66"/>
</g>
<defs>
<clipPath id="clip0_87_93">
<rect width="215" height="35" fill="white"/>
</clipPath>
</defs>
</svg>
