<svg width="25" height="25" viewBox="0 0 25 25" fill="none" xmlns="http://www.w3.org/2000/svg">
<path d="M4.16659 20.8334C3.59367 20.8334 3.10322 20.6294 2.69523 20.2214C2.28725 19.8135 2.08325 19.323 2.08325 18.7501V6.25008C2.08325 5.67716 2.28725 5.18671 2.69523 4.77873C3.10322 4.37074 3.59367 4.16675 4.16659 4.16675H20.8333C21.4062 4.16675 21.8966 4.37074 22.3046 4.77873C22.7126 5.18671 22.9166 5.67716 22.9166 6.25008V18.7501C22.9166 19.323 22.7126 19.8135 22.3046 20.2214C21.8966 20.6294 21.4062 20.8334 20.8333 20.8334H4.16659ZM12.4999 13.5417L4.16659 8.33342V18.7501H20.8333V8.33342L12.4999 13.5417ZM12.4999 11.4584L20.8333 6.25008H4.16659L12.4999 11.4584ZM4.16659 8.33342V6.25008V18.7501V8.33342Z" fill="#202A20"/>
</svg>
